<?xml version="1.0" encoding="utf-8"?>
<!-- Generator: Adobe Illustrator 27.9.0, SVG Export Plug-In . SVG Version: 6.00 Build 0)  -->
<svg version="1.1" xmlns="http://www.w3.org/2000/svg" xmlns:xlink="http://www.w3.org/1999/xlink" x="0px" y="0px"
	 viewBox="0 0 44 44" style="enable-background:new 0 0 44 44;" xml:space="preserve">
<style type="text/css">
	.st0{display:none;}
	.st1{display:inline;fill-rule:evenodd;clip-rule:evenodd;}
	.st2{clip-path:url(#SVGID_00000033355699000978882880000017211320397150491273_);}
</style>
<g id="Layer_1" class="st0">
	<path class="st1" d="M27.8,0.9V5c-1-0.2-2.1-0.4-3.1-0.8h-2.3c-3.8,0-5.7,0.5-8.2,1.8l-1.5,0.5C8.6,9.2,5.6,13.3,4.3,18
		c-0.1,2-0.2,4.1-0.2,6.1c0.7-0.2,1.3-0.6,1.8-1h0.5c0.1-0.2,0.2-0.3,0.3-0.5h0.5c0.1-0.2,0.2-0.3,0.2-0.5l1-0.3
		c0.1-0.2,0.2-0.3,0.3-0.5h0.5c0.1-0.2,0.2-0.3,0.2-0.5l1-0.3v-0.3c0.3-0.1,0.5-0.2,0.8-0.3c0.1-0.2,0.2-0.3,0.2-0.5l1-0.3
		c0.1-0.2,0.2-0.3,0.3-0.5h0.5c0.1-0.2,0.2-0.3,0.2-0.5H14c0.1-0.2,0.2-0.3,0.3-0.5h0.5v-0.3h0.5c0.1-0.2,0.2-0.3,0.2-0.5h0.5
		c0.1-0.2,0.2-0.3,0.3-0.5l1-0.3V16c0.2-0.1,0.5-0.2,0.8-0.3c0.1-0.2,0.2-0.3,0.3-0.5l1-0.3v-0.3l0.8-0.3c0.1-0.2,0.2-0.3,0.3-0.5
		l1-0.3c0.1-0.2,0.2-0.3,0.2-0.5h0.5c0.1-0.2,0.2-0.3,0.3-0.5H23c0.1-0.2,0.2-0.3,0.3-0.5l1-0.3v-0.3c0.2-0.1,0.5-0.2,0.8-0.3
		c0.1-0.2,0.2-0.3,0.3-0.5h0.5v-0.3h0.5c0.1-0.2,0.2-0.3,0.2-0.5H27c0.1-0.2,0.2-0.3,0.3-0.5h0.5V9.4h0.5c0.1-0.2,0.2-0.3,0.2-0.5
		h0.5c0.1-0.2,0.2-0.3,0.3-0.5l1-0.3V7.8c0.2-0.1,0.5-0.2,0.8-0.3c0.1-0.2,0.2-0.3,0.3-0.5h0.5c0.1-0.2,0.2-0.3,0.2-0.5l1-0.3
		c0.1-0.2,0.2-0.3,0.3-0.5h0.5c0.1-0.2,0.2-0.3,0.2-0.5h0.5V5c0.3-0.1,0.5-0.2,0.8-0.3V5c1.7,0.8,5.6,5.2,5.9,7.4
		C30.3,19.3,19.2,26.2,8.2,33.1v0.5c0.3,0.2,0.6,0.4,0.8,0.8c0.5-0.1,0.2,0,0.5-0.3C9.7,34,10,34,10.2,33.9v-0.3h0.5v-0.3h0.5
		c0.1-0.2,0.2-0.3,0.2-0.5H12c0.1-0.2,0.2-0.3,0.3-0.5h0.5v-0.3h0.5c0.1-0.2,0.2-0.3,0.2-0.5H14c0.1-0.2,0.2-0.3,0.3-0.5l1-0.3
		c0.1-0.2,0.2-0.3,0.2-0.5h0.5c0.1-0.2,0.2-0.3,0.3-0.5c0.2-0.1,0.5-0.2,0.8-0.3v-0.3l1-0.3v-0.3c0.3-0.1,0.5-0.2,0.8-0.3
		c0.1-0.2,0.2-0.3,0.2-0.5l1-0.3v-0.3c0.3-0.1,0.5-0.2,0.8-0.3c0.1-0.2,0.2-0.3,0.2-0.5h0.5v-0.3h0.5c0.1-0.2,0.2-0.3,0.3-0.5H23
		c0.1-0.2,0.2-0.3,0.3-0.5l1-0.3c0.1-0.2,0.2-0.3,0.2-0.5H25c0.1-0.2,0.2-0.3,0.3-0.5l1-0.3c0.1-0.2,0.2-0.3,0.2-0.5H27
		c0.1-0.2,0.2-0.3,0.3-0.5c0.2-0.1,0.5-0.2,0.8-0.3v-0.3l1-0.3v-0.3c0.3-0.1,0.5-0.2,0.8-0.3c0.1-0.2,0.2-0.3,0.2-0.5h0.5v-0.3h0.5
		c0.1-0.2,0.2-0.3,0.3-0.5h0.5c0.1-0.2,0.2-0.3,0.2-0.5l1-0.3c0.1-0.2,0.2-0.3,0.3-0.5h0.5c0.1-0.2,0.2-0.3,0.2-0.5l1-0.3
		c0.1-0.2,0.2-0.3,0.3-0.5H36c0.1-0.2,0.2-0.3,0.2-0.5h0.5c0.1-0.2,0.2-0.3,0.3-0.5l1-0.3c0.1-0.2,0.2-0.3,0.2-0.5h0.5
		c0.1-0.2,0.2-0.3,0.3-0.5l1-0.3c0.1-0.2,0.2-0.3,0.2-0.5l2-1c0.1,0.8,0.4,1.6,0.8,2.3v0.8h0.2V18h0.3v1.5h0.2
		c0.2,1.6,0.1,3.3-0.2,4.9c-0.1,0.9-0.2,1.9-0.3,2.8h-0.2c-0.1,0.6-0.2,1.2-0.3,1.8h-0.2c-0.1,0.4-0.2,0.9-0.3,1.3h-0.2
		c-0.1,0.3-0.2,0.7-0.3,1h-0.2l-0.5,1.5l-0.5,0.3v0.5h-0.3v0.5c-0.2,0.2-0.5,0.3-0.8,0.5v0.5c-0.3,0.2-0.5,0.3-0.8,0.5v0.5l-1,0.8
		l-1.5,1.8h-0.5l-0.5,0.8h-0.5l-0.5,0.8l-1,0.3c-0.1,0.2-0.2,0.3-0.2,0.5l-1,0.3v0.3l-1.5,0.5v0.3h-0.8v0.3h-0.5v0.3h-1v0.3h-0.8
		v0.3H26c-1,0.3-4.8,1-6.4,0.5v-0.3h-1.8v-0.3l-1.8-0.3V39c1,0.2,2.1,0.4,3.1,0.8h2.3c3.8,0,5.7-0.5,8.2-1.8l1.5-0.5
		c0.1-0.2,0.2-0.3,0.3-0.5h0.5c0.1-0.2,0.2-0.3,0.2-0.5h0.5l0.5-0.8h0.5c0.1-0.2,0.2-0.3,0.3-0.5c0.6-0.5,1.2-1,1.8-1.5v-0.5l1-0.8
		v-0.5l0.5-0.3c0.1-0.3,0.2-0.7,0.3-1h0.2V30H38l0.5-1.5h0.2v-0.8H39V27h0.2v-1h0.3v-1.3h0.2v-4.6c-0.2,0.1-0.5,0.2-0.8,0.3v0.3
		h-0.5v0.3H38c-0.1,0.2-0.2,0.3-0.3,0.5h-0.5c-0.1,0.2-0.2,0.3-0.2,0.5h-0.5v0.3H36c-0.1,0.2-0.2,0.3-0.3,0.5h-0.5
		C35.1,22.8,35,23,35,23.2l-1,0.3c-0.1,0.2-0.2,0.3-0.3,0.5h-0.5c-0.1,0.2-0.2,0.3-0.2,0.5h-0.5c-0.1,0.2-0.2,0.3-0.3,0.5l-1,0.3
		v0.3c-0.2,0.1-0.5,0.2-0.8,0.3c-0.1,0.2-0.2,0.3-0.3,0.5h-0.5v0.3h-0.5c-0.1,0.2-0.2,0.3-0.2,0.5h-0.5c-0.1,0.2-0.2,0.3-0.3,0.5
		l-1,0.3c-0.1,0.2-0.2,0.3-0.2,0.5h-0.5c-0.1,0.2-0.2,0.3-0.3,0.5L25,29c-0.1,0.2-0.2,0.3-0.2,0.5h-0.5c-0.1,0.2-0.2,0.3-0.3,0.5
		c-0.2,0.1-0.5,0.2-0.8,0.3v0.3c-0.4,0.1-0.7,0.2-1,0.3v0.3c-0.2,0.1-0.5,0.2-0.8,0.3c-0.1,0.2-0.2,0.3-0.3,0.5l-1,0.3
		c-0.1,0.2-0.2,0.3-0.2,0.5h-0.5c-0.1,0.2-0.2,0.3-0.3,0.5l-1,0.3v0.3c-0.2,0.1-0.5,0.2-0.8,0.3c-0.1,0.2-0.2,0.3-0.3,0.5l-1,0.3
		c-0.1,0.2-0.2,0.3-0.2,0.5h-0.5c-0.1,0.2-0.2,0.3-0.3,0.5l-1,0.3c-0.1,0.2-0.2,0.3-0.2,0.5h-0.5c-0.1,0.2-0.2,0.3-0.3,0.5h-0.5
		c-0.1,0.2-0.2,0.3-0.2,0.5l-1,0.3c-0.1,0.2-0.2,0.3-0.3,0.5h-0.5c-0.1,0.2-0.2,0.3-0.2,0.5l-1,0.3c-0.1,0.2-0.2,0.3-0.3,0.5
		c-0.4,0,0.1-0.1-0.2-0.3c-1.9-1-5.6-5.1-6.1-7.4c0.6-0.1,1.2-0.4,1.8-0.8c0.1-0.2,0.2-0.3,0.3-0.5h0.5c0.1-0.2,0.2-0.3,0.2-0.5
		l1-0.3c0.1-0.2,0.2-0.3,0.3-0.5h0.5c0.1-0.2,0.2-0.3,0.2-0.5l1-0.3c0.1-0.2,0.2-0.3,0.3-0.5h0.5c0.1-0.2,0.2-0.3,0.2-0.5l1-0.3V27
		c0.3-0.1,0.5-0.2,0.8-0.3c0.1-0.2,0.2-0.3,0.2-0.5H12V26h0.5c0.1-0.2,0.2-0.3,0.3-0.5h0.5c0.1-0.2,0.2-0.3,0.2-0.5l1-0.3
		c0.1-0.2,0.2-0.3,0.3-0.5h0.5c0.1-0.2,0.2-0.3,0.2-0.5h0.5c0.1-0.2,0.2-0.3,0.3-0.5h0.5v-0.3h0.5c0.1-0.2,0.2-0.3,0.2-0.5h0.5
		c0.1-0.2,0.2-0.3,0.3-0.5l1-0.3v-0.3c0.2-0.1,0.5-0.2,0.8-0.3c0.1-0.2,0.2-0.3,0.3-0.5h0.5v-0.3h0.5c0.1-0.2,0.2-0.3,0.2-0.5h0.5
		c0.1-0.2,0.2-0.3,0.3-0.5l1-0.3c0.1-0.2,0.2-0.3,0.3-0.5h0.5c0.1-0.2,0.2-0.3,0.2-0.5c0.3-0.1,0.5-0.2,0.8-0.3v-0.3l1-0.3V17
		c0.2-0.1,0.5-0.2,0.8-0.3c0.1-0.2,0.2-0.3,0.3-0.5l1-0.3v-0.3c0.2-0.1,0.5-0.2,0.8-0.3c0.1-0.2,0.2-0.3,0.3-0.5h0.5v-0.3h0.5
		c0.1-0.2,0.2-0.3,0.2-0.5h0.5c0.1-0.2,0.2-0.3,0.3-0.5l1-0.3c0.1-0.2,0.2-0.3,0.2-0.5h0.5c0.1-0.2,0.2-0.3,0.3-0.5h0.5
		c0.1-0.2,0.2-0.3,0.2-0.5h0.5v-0.3h0.5c0.1-0.2,0.2-0.3,0.3-0.5H36v-0.3h-0.3c-0.2-0.8-0.3-0.9-1.3-1c-0.5,0.7-1.3,0.8-2,1.3
		c-0.1,0.2-0.2,0.3-0.3,0.5h-0.5v0.3h-0.5c-0.1,0.2-0.2,0.3-0.2,0.5h-0.5c-0.1,0.2-0.2,0.3-0.3,0.5l-1,0.3c-0.1,0.2-0.2,0.3-0.2,0.5
		h-0.5c-0.1,0.2-0.2,0.3-0.3,0.5h-0.5c-0.1,0.2-0.2,0.3-0.2,0.5l-1,0.3v0.3c-0.3,0.1-0.5,0.2-0.8,0.3c-0.1,0.2-0.2,0.3-0.2,0.5h-0.5
		v0.3h-0.5c-0.1,0.2-0.2,0.3-0.3,0.5h-0.5c-0.1,0.2-0.2,0.3-0.2,0.5c-0.4,0.1-0.7,0.2-1,0.3v0.3c-0.2,0.1-0.5,0.2-0.8,0.3
		c-0.1,0.2-0.2,0.3-0.3,0.5l-1,0.3c-0.1,0.2-0.2,0.3-0.2,0.5h-0.5c-0.1,0.2-0.2,0.3-0.3,0.5c-0.2,0.1-0.5,0.2-0.8,0.3v0.3l-1,0.3
		v0.3c-0.3,0.1-0.5,0.2-0.8,0.3c-0.1,0.2-0.2,0.3-0.2,0.5l-1,0.3v0.3c-0.3,0.1-0.5,0.2-0.8,0.3c-0.1,0.2-0.2,0.3-0.2,0.5l-1,0.3
		c-0.1,0.2-0.2,0.3-0.3,0.5h-0.5c-0.1,0.2-0.2,0.3-0.2,0.5l-1,0.3v0.3c-0.3,0.1-0.5,0.2-0.8,0.3c-0.1,0.2-0.2,0.3-0.2,0.5l-1,0.3
		C9.1,25.9,9,26,8.9,26.2H8.4c-0.1,0.2-0.2,0.3-0.2,0.5H7.7c-0.1,0.2-0.2,0.3-0.3,0.5l-1,0.3v0.3L5.6,28c-0.1,0.2-0.2,0.3-0.3,0.5
		l-1,0.3c-0.1,0.2-0.2,0.3-0.2,0.5H3.6c-0.1,0.2-0.2,0.3-0.3,0.5l-1,0.3c-0.1,0.2-0.2,0.3-0.2,0.5c-0.4,0,0.1-0.1-0.3-0.3H1.5
		c-0.1-0.5-0.2-1-0.3-1.5H1V28c-1.5-4.4-1.3-9.2,0.5-13.5v-0.8h0.2l0.5-1.5h0.3c0.1-0.3,0.2-0.7,0.2-1l0.5-0.3
		c0.1-0.3,0.2-0.7,0.3-1c0.2-0.2,0.5-0.3,0.8-0.5V8.8l1-0.8V7.6C6,7.1,6.5,6.5,7.1,6c0.1-0.2,0.2-0.3,0.2-0.5h0.5
		c0.3-0.3,0.5-0.7,0.8-1h0.5l0.5-0.8l1-0.3C10.8,3.3,10.9,3.1,11,3l1-0.3V2.5L13.5,2V1.7c0.8-0.2,1.5-0.3,2.3-0.5V0.9h0.8V0.7h1.3
		c1-0.3,4.8-1,6.4-0.5v0.3H26v0.3L27.8,0.9z"/>
</g>
<g id="Layer_2">
	<g>
		<g>
			<g>
				
					<image style="overflow:visible;" width="37" height="37" xlink:href="809AF303C1EC2773.png"  transform="matrix(1 0 0 1 2.9844 2.853)">
				</image>
			</g>
		</g>
	</g>
	<g>
		<defs>
			<polygon id="SVGID_1_" points="17.8,9.6 10.4,18.6 11.4,25.9 15.3,25 18.9,24.6 23.4,24.3 27,24.8 33.3,25.3 36.3,15.1 			"/>
		</defs>
		<clipPath id="SVGID_00000114787480792157015870000015868562072356859804_">
			<use xlink:href="#SVGID_1_"  style="overflow:visible;"/>
		</clipPath>
		<g style="clip-path:url(#SVGID_00000114787480792157015870000015868562072356859804_);">
			<g>
				<g>
					
						<image style="overflow:visible;" width="37" height="37" xlink:href="809AF303C1EC2771.png"  transform="matrix(1 0 0 1 2.9844 2.853)">
					</image>
				</g>
			</g>
		</g>
	</g>
</g>
</svg>
